<mxfile host="app.diagrams.net" modified="2021-07-01T00:39:20.125Z" agent="5.0 (Windows NT 10.0; Win64; x64) AppleWebKit/537.36 (KHTML, like Gecko) Chrome/91.0.4472.124 Safari/537.36" etag="4l9pnbawZIwD_vbEKIAE" version="14.8.3" type="github">
  <diagram id="6brlylAKcYmuGklbwOr_" name="Page-1">
    <mxGraphModel dx="1102" dy="582" grid="1" gridSize="10" guides="1" tooltips="1" connect="1" arrows="1" fold="1" page="1" pageScale="1" pageWidth="827" pageHeight="1169" math="0" shadow="0">
      <root>
        <mxCell id="0" />
        <mxCell id="1" parent="0" />
        <mxCell id="fYdo8ph7aY2NQNl3tgFK-1" value="" style="ellipse;html=1;shape=startState;fillColor=#000000;strokeColor=#ff0000;" vertex="1" parent="1">
          <mxGeometry x="399" y="20" width="30" height="30" as="geometry" />
        </mxCell>
        <mxCell id="fYdo8ph7aY2NQNl3tgFK-2" value="" style="edgeStyle=orthogonalEdgeStyle;html=1;verticalAlign=bottom;endArrow=open;endSize=8;strokeColor=#ff0000;" edge="1" source="fYdo8ph7aY2NQNl3tgFK-1" parent="1">
          <mxGeometry relative="1" as="geometry">
            <mxPoint x="414" y="110" as="targetPoint" />
          </mxGeometry>
        </mxCell>
        <mxCell id="fYdo8ph7aY2NQNl3tgFK-3" value="درخواست مشتری" style="rounded=0;whiteSpace=wrap;html=1;" vertex="1" parent="1">
          <mxGeometry x="354" y="110" width="120" height="50" as="geometry" />
        </mxCell>
        <mxCell id="fYdo8ph7aY2NQNl3tgFK-4" value="دریاف درخواست مشتری" style="rounded=0;whiteSpace=wrap;html=1;" vertex="1" parent="1">
          <mxGeometry x="354" y="220" width="120" height="50" as="geometry" />
        </mxCell>
        <mxCell id="fYdo8ph7aY2NQNl3tgFK-5" value="" style="endArrow=classic;html=1;entryX=0.5;entryY=0;entryDx=0;entryDy=0;" edge="1" parent="1" target="fYdo8ph7aY2NQNl3tgFK-4">
          <mxGeometry width="50" height="50" relative="1" as="geometry">
            <mxPoint x="414" y="160" as="sourcePoint" />
            <mxPoint x="464" y="110" as="targetPoint" />
          </mxGeometry>
        </mxCell>
        <mxCell id="fYdo8ph7aY2NQNl3tgFK-18" value="" style="endArrow=classic;html=1;exitX=0.5;exitY=1;exitDx=0;exitDy=0;entryX=0.5;entryY=0;entryDx=0;entryDy=0;" edge="1" parent="1" source="fYdo8ph7aY2NQNl3tgFK-4">
          <mxGeometry width="50" height="50" relative="1" as="geometry">
            <mxPoint x="414" y="320" as="sourcePoint" />
            <mxPoint x="414" y="330" as="targetPoint" />
          </mxGeometry>
        </mxCell>
        <mxCell id="fYdo8ph7aY2NQNl3tgFK-21" value="" style="rhombus;whiteSpace=wrap;html=1;" vertex="1" parent="1">
          <mxGeometry x="374" y="330" width="80" height="80" as="geometry" />
        </mxCell>
        <mxCell id="fYdo8ph7aY2NQNl3tgFK-22" value="اتمام موجودی" style="endArrow=classic;html=1;" edge="1" parent="1">
          <mxGeometry width="50" height="50" relative="1" as="geometry">
            <mxPoint x="454" y="370" as="sourcePoint" />
            <mxPoint x="530" y="370" as="targetPoint" />
          </mxGeometry>
        </mxCell>
        <mxCell id="fYdo8ph7aY2NQNl3tgFK-23" value="ذخیره سفارش" style="rounded=0;whiteSpace=wrap;html=1;" vertex="1" parent="1">
          <mxGeometry x="530" y="345" width="110" height="45" as="geometry" />
        </mxCell>
        <mxCell id="fYdo8ph7aY2NQNl3tgFK-24" value="موجود است" style="endArrow=classic;html=1;" edge="1" parent="1">
          <mxGeometry width="50" height="50" relative="1" as="geometry">
            <mxPoint x="414" y="410" as="sourcePoint" />
            <mxPoint x="414" y="470" as="targetPoint" />
          </mxGeometry>
        </mxCell>
        <mxCell id="fYdo8ph7aY2NQNl3tgFK-25" value="ثبت سفارش" style="rounded=0;whiteSpace=wrap;html=1;" vertex="1" parent="1">
          <mxGeometry x="354" y="470" width="120" height="50" as="geometry" />
        </mxCell>
        <mxCell id="fYdo8ph7aY2NQNl3tgFK-26" value="" style="endArrow=classic;html=1;" edge="1" parent="1">
          <mxGeometry width="50" height="50" relative="1" as="geometry">
            <mxPoint x="414" y="520" as="sourcePoint" />
            <mxPoint x="414" y="590" as="targetPoint" />
          </mxGeometry>
        </mxCell>
        <mxCell id="fYdo8ph7aY2NQNl3tgFK-27" value="" style="ellipse;html=1;shape=endState;fillColor=#000000;strokeColor=#ff0000;" vertex="1" parent="1">
          <mxGeometry x="399" y="590" width="30" height="30" as="geometry" />
        </mxCell>
        <mxCell id="fYdo8ph7aY2NQNl3tgFK-28" value="نمودار فعالیت ثبت سفارش مشتری" style="text;html=1;strokeColor=none;fillColor=none;align=center;verticalAlign=middle;whiteSpace=wrap;rounded=0;" vertex="1" parent="1">
          <mxGeometry x="510" y="30" width="200" height="20" as="geometry" />
        </mxCell>
      </root>
    </mxGraphModel>
  </diagram>
</mxfile>
